<?xml version="1.0" encoding="UTF-8" ?>
<!DOCTYPE svg PUBLIC "-//W3C//DTD SVG 1.1//EN" "http://www.w3.org/Graphics/SVG/1.1/DTD/svg11.dtd">
<svg width="83pt" height="100pt" viewBox="0 0 83 100" version="1.1" xmlns="http://www.w3.org/2000/svg">
<g id="#ffffffff">
<path fill="#ffffff" opacity="1.00" d=" M 31.87 55.99 C 32.81 43.05 33.80 30.10 34.86 17.16 C 36.56 19.00 39.53 18.44 41.75 19.36 C 40.69 27.22 40.16 35.13 39.11 42.99 C 41.54 42.53 43.34 40.67 45.33 39.35 C 54.32 33.00 63.32 26.66 72.38 20.42 C 73.16 19.87 73.77 19.13 74.40 18.43 C 75.61 20.91 76.16 23.62 76.82 26.28 C 77.65 29.13 78.30 32.03 79.26 34.85 C 79.37 35.61 79.47 36.38 79.58 37.14 C 68.10 42.69 56.85 48.72 45.42 54.37 C 44.18 54.94 43.06 55.73 42.06 56.65 C 46.94 61.23 50.93 66.67 55.39 71.65 C 54.46 75.20 53.84 78.82 53.04 82.39 C 46.13 73.47 38.75 64.90 31.87 55.99 Z" />
</g>
<g id="#fece0fff">
<path fill="#fece0f" opacity="1.00" d=" M 18.20 46.94 C 18.71 44.76 19.29 42.60 19.89 40.45 C 23.73 45.86 27.59 51.24 31.50 56.59 C 31.31 64.10 30.36 71.58 30.18 79.10 C 28.91 78.18 27.69 77.20 26.54 76.15 C 26.75 72.05 26.90 67.95 26.87 63.84 C 23.85 65.44 20.72 66.81 17.83 68.63 C 17.16 66.42 16.56 64.18 15.80 62.00 C 18.78 60.05 21.56 57.82 24.62 56.01 C 22.86 52.74 20.36 49.95 18.20 46.94 Z" />
</g>
</svg>
